<svg xmlns="http://www.w3.org/2000/svg" xmlns:xlink="http://www.w3.org/1999/xlink" width="364" height="240" viewBox="0 0 364 240">
    <!-- <defs>
        <path id="a" d="M.243.293h339.654V11.5c-80.894 9.514-140.648 14.27-179.263 14.27-38.615 0-92.079-4.756-160.39-14.27V.293z"/>
        <path id="c" d="M.215.27h25.472v5.397H.215z"/>
    </defs> -->
<path fill="#28167D" d="M224.955 117s-10.015 5.758-6.01 16.211c4.007 10.453 25.539 43.18 25.539 43.18l-13.245 37.682L236.47 216 256 174.741l-18.279-56.619L224.955 117z"/>
        <path fill="#1C0E5B" d="M235 68s-29.466 15.192-31.58 20.262c-2.106 5.07 4.384 24.666 4.384 24.666l4.244 6.072s6.484-4.692 4.488-6.903c-1.997-2.205-5.24-3.036-5.24-3.036s-3.742-18.34.502-20.345c4.237-2.004 21.706 2.836 21.706 0S235 68 235 68"/>
        <path fill="#E3E3E3" d="M223.278 86.826c.162.84.33 1.673.51 2.494 5.073.642 9.725 1.241 9.725-.251C233.513 86.185 235 68 235 68s-3.784 1.996-8.73 4.797c-2.107 3.675-3.998 8.723-2.992 14.03"/>
        <path fill="#1C0E5B" d="M244 122.607s-12.63 56.271-15.255 59.163c-2.623 2.886-29.244 16.23-29.244 16.23L197 193.103l22.625-18.216-2.32-49.529L222.68 116 244 122.607z"/>
        <path fill="#28167D" d="M322.782 209.82s6.406-2.55 8.17-2.807c1.765-.257 4.032 3.28 2.59 4.489-1.435 1.208-2.985-1.582-2.985-1.582l-7.332 4.08-2.225-2.416 1.782-1.763z"/>
        <path fill="#C9C3C9" d="M290 202.105s-2.937-.444-6.05-1.878c-3.12-1.44-5.443-1.644-7.151-3.243-1.71-1.6-5.09-3.984-6.799-3.984 0 0 4.998 2.999 5.655 4.416.663 1.417 6.95 3.198 7.723 3.92.766.718 4.47 2.664 4.47 2.664l2.152-1.895zM330.332 192s1.668 1.506 1.668 2.922c0 1.415-2.031 3.229-3.595 1.108-1.57-2.126 1.927-4.03 1.927-4.03"/>
        <path fill="#28167D" d="M293.633 212.419s-1.88 2.085-1.88 2.798c0 .712 1.452 1.187 2.545 2.021.763.58.775 1.408.63 1.408-1.087 0-3.794 1.14-4.007-.672-.214-1.813-3.921-4.176-3.921-4.176l2.417-2.798 4.216 1.419z"/>
        <path fill="#1C0E5B" d="M286.576 203c-2.456.897-5.42 2.441-6.31 3.986l-1.158 2.004s-2.921-1.25-3.252-.426c-.337.817-.856 7.852-.856 7.852l3.347 1.544c.307.137.661-.096.626-.42-.095-.778-.455-1.976-1.783-2.475l.886-3.69s2.615 2.168 4.521 2.027c1.907-.143 12.999-1.057 13.394-.852.325-3.958-8.47-6.12-9.415-9.55"/>
        <path fill="#1C0E5B" d="M337.935 186.754c-.316-.907-1.838-.45-1.838-.45s-4.69 0-5.575-.913c-.89-.908-1.839-1.82-4.18-1.172-2.343.655-4.563 2.47-4.563 4.944 0 0-.708 8.88-3.847 11.234-1.019.757-5.978 2.986-10.967 3.184-8.596.337-19.025-2.108-20.349-1.16-.48.343-1.036.806-1.616 1.34 2.16 3.029 5.961 4.368 7.144 8.393 4.614.595 11.84 4.097 15.13 3.803 3.614-.324 18.909 2.019 21.725-7.24 1.078-3.538-.316-15.33 1.078-16.177 1.394-.842 4.573-.403 6.148-1.172 1.125-.547 1.078-2.205 1.078-2.205s.949-1.495.632-2.409"/>
        <path fill="#C9C3C9" d="M319.226 197l9.71 1.754L329 200l-10-2.047zM320 202.972c0-.838-.426-1.897-1.094-2.972a4.607 4.607 0 0 1-.9.885c-1.029.728-6.038 2.873-11.078 3.064-5.506.202-11.752-.665-15.928-1.098.526 1.358 1.307 2.601 2.443 2.994 2.88 1 4.673-.063 7.103 2.319 2.432 2.377 6.59 2.625 9.6-.318 3.005-2.937 9.854-2 9.854-4.874"/>
        <path fill="#4E325C" d="M323 187s-1.551.249-2.715.936c-1.157.688 1.559 6.064 1.886 6.064.328 0 .829-7 .829-7"/>
        <path fill="#C9C3C9" d="M322.613 199s2.572-.059 2.376-2.536c-.19-2.478-3.13-5.025-3.13-6.247 0-1.215 1.33-3.217 1.33-3.217s-1.473 0-2.661.887c-1.194.892-1.176 1.702-1.675 2.19-.5.493-1.48.763-1.83 2.512-.356 1.744 3.499 5.841 5.59 6.411"/>
        <path fill="#E3E3E3" d="M322.335 190.305c-.087-.916.628-2.56.957-3.305-.558.834-1.307 2.272-1.292 3.346.193 1.667 2.583 3.904 2.664 6.41.045 1.051-.532 1.99-1.863 2.243 1.174.036 2.172-.792 2.197-2.237.08-2.665-2.415-5.113-2.663-6.457"/>
        <path fill="#000" d="M328 187.004c0 .55-.225.996-.5.996s-.5-.446-.5-.996.225-1.004.5-1.004.5.453.5 1.004"/>
        <path fill="#1C0E5B" d="M323.413 212s6.717 1.008 8.338 1.675c1.626.672 1.738 4.964-.1 5.3-1.832.337-1.72-2.923-1.72-2.923l-8.28-.12-.651-3.278 2.413-.654z"/>
        <path fill="#C9C3C9" d="M337.925 186.515c-.37-.902-2.33-.344-2.515-.35-.123 0-.993 1.039.253 2.332.309.31.706.404 1.159.463.034.006.26.054.287.036.445-.386 1.117-1.769.816-2.48"/>
        <path fill="#5E207E" d="M189.384 187.215v8.426c0 3.47-.384 9.005-.384 10.74 0 1.735 3.772 8.013 5.003 7.6 1.232-.413.926-6.113 2.313-9.087 1.388-2.974 6.343-7.66 5.61-8.444-.732-.785-.684-6.178-1.61-7.17-.918-.99-10.12-2.926-10.932-2.065"/>
        <path fill="#5E207E" d="M190.96 205.236v-18.204c-.84-.071-1.46-.03-1.63.183v8.426c0 3.47-.33 9.005-.33 10.74 0 1.734 3.24 8.013 4.298 7.6.34-.136.542-.809.702-1.765-.872-1.25-3.04-4.579-3.04-6.98"/>
        <path fill="#5B10BF" d="M194 194.37s1.77 8.612 2.189 9.515c.418.904 3.811-3.818 3.811-3.818s-1.869-6.595-2.822-6.977c-.953-.377-2.317.51-3.178 1.28"/>
        <path fill="#5E207E" d="M228.21 222.64h8.114c3.336 0 8.667.36 10.338.36 1.67 0 7.714-3.534 7.32-4.687-.4-1.152-5.89-.861-8.75-2.16-2.866-1.298-6.855-5.764-7.608-5.083-.754.687-6.473.466-7.426 1.334-.953.861-2.824 9.478-1.989 10.235"/>
        <g transform="translate(228 218)">
            <mask id="d" fill="#fff">
                <use xlink:href="#c"/>
            </mask>
            <path fill="#5E207E" d="M17.42 3.551H.246c-.07.905-.029 1.574.173 1.758h7.95c3.268 0 8.491.358 10.129.358 1.637 0 7.558-3.5 7.171-4.641-.126-.37-.766-.588-1.666-.756-1.176.94-4.324 3.281-6.583 3.281" mask="url(#d)"/>
        </g>
        <path fill="#5B10BF" d="M235.376 218s8.608-1.476 9.51-1.82c.9-.35-3.817-3.18-3.817-3.18s-6.594 1.56-6.979 2.357c-.379.79.51 1.926 1.286 2.643"/>
        <path fill="#4E325C" d="M337 190.063c-.448 3.427-6.516 1.368-5.965.858a.143.143 0 0 1 .184-.005h.006l.012.01c1.392 1.129 5.254 1.607 5.628-.873v-.006c.006-.03.037-.052.074-.046.037.005.061.03.061.062"/>
        <path fill="#C9C3C9" d="M226.116 83.732s2.296 16.64 0 24.128c-2.302 7.488-5.116 8.334-5.116 8.334L244.013 122S253 89.691 253 81.836c0-3.21-2.117-8.476-4.956-11.681-4.108-4.633-9.935-6.463-14.771-4.165-8.182 3.88-7.157 17.742-7.157 17.742"/>

        </svg>