<svg xmlns="http://www.w3.org/2000/svg" xmlns:xlink="http://www.w3.org/1999/xlink" width="364" height="240" viewBox="0 0 364 240">
    <defs>
        <path id="a" d="M.243.293h339.654V11.5c-80.894 9.514-140.648 14.27-179.263 14.27-38.615 0-92.079-4.756-160.39-14.27V.293z"/>
        <path id="c" d="M.215.27h25.472v5.397H.215z"/>
    </defs>
    <g fill="none" fill-rule="evenodd">
        <path fill="#814FDB" d="M76 223s-11.764-21.604-17.053-16.433c-5.287 5.171-11.823-6.08-19.9-8.336 0 0-28.047-7.522-28.047-2.507 0 5.015 7.451 8.17 6.346 12.285-1.987 7.396 17.18 5.203 12.564 6.707-4.616 1.504-2.244 8.284 6.987 8.284H76z"/>
        <path fill="#1C0E5B" d="M76 223s-11.867-21.883-17.202-16.645c-5.334 5.238-11.927-6.159-20.075-8.444 0 0-6.155-1.658-12.723-2.911.66 6.572 14.216 4.134 14.216 6.049 0 2.693-8.462-2.957-11.422 4.734C26.384 212.05 39.4 222.355 46.095 223H76z"/>
        <path fill="#4C34B2" d="M60.845 223s-19.518-46.567-10.435-55.584c9.083-9.017 15.267.192 18.939-3.453 3.67-3.645-13.528-28.395-3.093-38.755 10.436-10.36 16.04 9.784 22.03 3.837 5.992-5.948 4.252-50.65 20.485-46.812 16.233 3.837-6.184 46.812 0 46.812s12.368-12.662 18.551-.384c6.185 12.28-32.465 40.673-15.073 40.673 17.393 0 13.528 11.896 9.276 21.104-4.251 9.21-28.6 32.562-28.6 32.562h-32.08z"/>
        <path fill="#664DCD" d="M126.443 128.079c-7.04 9.563-19.696 25.419-30.138 31.3 6.448-34.493 11.252-67.383 12.635-77.111a8.624 8.624 0 0 0-1.118-.268c-1.034 7.255-4.045 27.881-8.274 52.587-2.157-7.829-4.72-17.26-6.56-24.26l-.453 2.764c2.55 9.627 5.84 21.556 6.557 24.147-.313 1.813-.633 3.644-.959 5.494l-7.754-18.619a27.23 27.23 0 0 1-.524 1.72l7.91 18.99c-1.734 9.779-3.63 19.968-5.647 30.052-9.402-7.87-18.217-36.942-22.319-52.187a8.555 8.555 0 0 0-1.055.566c4.198 15.672 13.214 45.302 23.12 52.889-3.106 15.436-6.49 30.575-10 43.56-8.947-6.177-21.35-39.618-26.83-55.454-.34.162-.685.348-1.034.56 5.587 16.197 18.183 50.126 27.547 56.062-.192.699-.434 1.443-.626 2.129h1.243a469.38 469.38 0 0 0 4.417-17.112c7.87-3.899 27.561-21.107 37.694-30.182a7.742 7.742 0 0 0-.396-1.196c-9.64 8.63-28.674 25.293-36.946 29.89 2.87-12.132 5.828-26.26 8.872-42.362l.226-1.202c10.739-5.575 23.65-21.612 30.969-31.54a5.93 5.93 0 0 0-.299-.711 24.145 24.145 0 0 0-.258-.506"/>
        <path fill="#4C34B2" d="M24.03 152.477c7.262-7.248 22.357 14.537 22.357 14.537s3.658-4.914 9.266-3.073c11.692 3.84.156 31.797 6.308 30.293 6.153-1.503 8.156-6.828 14.998 0 6.842 6.83 0 28.766 0 28.766H48.22s-18.752-7.047-15.867-14.724c2.884-7.676 8.46-5.182 8.46-7.868 0-2.687-17.882-2.905-16.728-11.912 1.154-9.007 9.229-4.401 9.229-7.088 0-2.687-14.186-24.037-9.282-28.931"/>
        <path fill="#664DCD" d="M73 190.963a5.2 5.2 0 0 0-1.15-.259c-.063 4.243-.726 20.602-7.105 24.838-4.145-9.715-10.025-20.839-17.622-33.32a431.541 431.541 0 0 0-5-8.014c.739-3.724 1.106-7.976 1.25-12.19-.35-.427-.72-.87-1.107-1.322-.099 4.128-.401 8.346-1.05 12.1a474.013 474.013 0 0 0-3.31-5.066l-4.667-15.341a16.028 16.028 0 0 0-1.444-.797l3.904 12.831A533.652 533.652 0 0 0 26.358 151a4.763 4.763 0 0 0-1.007.572c5.206 7.235 13.09 18.595 20.798 31.263.79 1.298 1.562 2.583 2.315 3.855-2.569 1.665-9.492-1.549-14.98-4.71-.414.207-1.075.236-1.853.265 4.365 2.626 10.808 6.019 14.97 6.019.954 0 1.787-.18 2.448-.585a336.83 336.83 0 0 1 3.86 6.733c-6.602 1.124-21.172-1.914-27.909-3.469.165.482.395.932.68 1.35 5.982 1.362 16.578 3.518 23.736 3.518 1.55 0 2.94-.101 4.085-.333 5.634 10.197 10 19.474 12.933 27.522h1.22a136.675 136.675 0 0 0-2.453-6.379c6.976-4.376 7.73-20.867 7.799-25.658"/>
        <path fill="#2C9D9E" d="M93 223s0-45.686 7.696-47.19c7.695-1.504 3.847 8.706 6.67 5.889 2.82-2.816 4.36-32.423 12.055-29.27 7.696 3.152 3.145 11.09 8.498 10.066 5.354-1.025 2.276-20.23 13.307-22.279 11.03-2.048 6.373 11.006 1.539 15.62-21.348 20.38-2.214 5.072 1.493 11.133 4.704 7.692-12.833 17.612-9.178 21.26 3.655 3.649 11.022-5.089 9.225 5.154-1.795 10.242-36.17 29.617-36.17 29.617H93z"/>
        <path fill="#814FDB" d="M93 223s0-45.686 7.696-47.19c7.695-1.504 3.847 8.706 6.67 5.889 2.82-2.816 4.36-32.423 12.055-29.27 7.696 3.152 3.145 11.09 8.498 10.066 5.354-1.025 2.276-20.23 13.307-22.279 11.03-2.048 6.373 11.006 1.539 15.62-21.348 20.38-2.214 5.072 1.493 11.133 4.704 7.692-12.833 17.612-9.178 21.26 3.655 3.649 11.022-5.089 9.225 5.154-1.795 10.242-36.17 29.617-36.17 29.617H93z"/>
        <path fill="#1C0E5B" d="M125.816 205.686c2.227-4.59 5.935-8.755 3.627-12.7-.725-1.24-1.854-2.071-3.37-2.487 1.598-3.697 3.573-7.915 1.358-11.626-1.348-2.257-3.846-3.717-7.456-3.864C101.536 174.254 93 223 93 223h15.262s15.912-8.946 26.738-17.92c-3.207-.752-6.968-.56-9.184.606"/>
        <path fill="#5B10BF" d="M82.232 223s-2.39-33.122 8.168-34.793c10.558-1.672 5.747 11.519 11.065 9.553 5.318-1.967 5.064-19.775 17.219-18.714 12.154 1.06-3.545 15.172 3.798 15.172s-2.648 8.489-2.648 15.204c0 6.717 8.59-3.936 11.683-.796 3.092 3.14-9.67 14.374-9.67 14.374H82.232z"/>
        <path fill="#664DCD" d="M126 220.104c-4.31-1.558-13.455-4.146-21.335-.25 2.768-4.124 5.563-8.973 8.378-14.537 5.098-10.08 8.891-19.915 10.613-24.626a3.614 3.614 0 0 0-.952-.691c-1.93 5.289-6.792 17.897-13.348 29.832-2.079-2.424-1.797-13.236-.97-21.623-.511 1.165-.976 2.337-1.43 3.447-.523 6.96-.744 16.74 1.83 19.204a126.795 126.795 0 0 1-3.861 6.466c-2.177-7.43-1.83-15.693-1.451-19.82-.23.165-.469.307-.722.402a3.54 3.54 0 0 1-.454.137c-.373 4.58-.588 13.047 1.825 20.513a87.007 87.007 0 0 1-3.123 4.437l1.456.005c.23-.31.46-.628.69-.95 7.595-5.04 17.271-2.743 22.031-1.127.262-.256.538-.531.823-.819"/>
        <g transform="translate(28 216)">
            <mask id="b" fill="#fff">
                <use xlink:href="#a"/>
            </mask>
            <path fill="#4C34B2" d="M335.333 10.086c-61.853 7.327-109.8 11.618-143.84 12.873-34.042 1.255-86.263.656-156.664-1.796L.243 6.91 170.07.293c57.843-5.635 99.152-7.719 123.928-6.25 24.776 1.468 38.554 6.815 41.335 16.043z" mask="url(#b)"/>
        </g>
        <path fill="#C9C3C9" d="M77.593 119l14.765 48.362-4.26 48.051s2.933 3.258 4.902 4.496c0 0-3.51 0-7.179.086-3.104.072-3.238-.678-3.238-.678l1.138-5.22-1.138-46.735L67 127.069 77.593 119z"/>
        <path fill="#1C0E5B" d="M58 113.588l23.3 54.44V209h8.217L93 166.103 79.942 112z"/>
        <path fill="#C9C3C9" d="M70 170.939l-3.689-49.061L50 119l8.674 51.939-4.396 42.816-1.533 5.944s2.399.301 3.265.301c.865 0 8.436-.899 8.436-.899l-5.212-4.338L70 170.94z"/>
        <path fill="#1C0E5B" d="M48 116.147l9.59 55.633L51.324 209h11.334l8.21-37.22L73 130.164 68.19 111z"/>
        <path fill="#5E207E" d="M81 117.867L79.553 112l-10.672.756L48 115.913 49.418 124c5.266-4.253 13.304-6.21 20.47-7.297 3.68-.557 7.898-.54 11.112 1.164"/>
        <path fill="#1C0E5B" d="M54 63.093c5.877-2.179 20.312-8.538 29.184-21.074 12.928-18.267 13.836-26.06 13.836-26.06s-1.089-3.01-1.089-4.723c0-1.712-.856-3.922.212-3.922s1.205 2.147 1.205 2.881c0 .716 1.36.733 1.622-.225.545-1.979.081-10.096 1.223-8.963.658.653.366 6.641.366 7.864 0 1.224 1.113-4.923 1.689-7.451.574-2.528 1.51-1.182 1.098.204-.41 1.387-1.53 7.5-1.079 7.5.452 0 1.994-6.93 3.103-6.93 1.11 0 .1 1.17-.174 2.257-.275 1.087-2.071 4.404-1.36 5.11 0 0 3.06-4.139 3.163-3.493.052.322-2.34 5.272-3.546 7.245-2.84 4.642-12.055 33.113-17.64 38.628C80.37 57.317 70.3 70.812 69.234 77 63.119 73.48 57.015 69.169 54 63.093"/>
        <path fill="#DDDBDD" d="M54 63.934C57.018 70.079 63.13 74.44 69.25 78c.797-4.662 6.592-13.424 11.75-19.839-1.828-2.824-3.243-5.854-4.197-8.161C68.475 57.886 58.61 62.208 54 63.934"/>
        <path fill="#1C0E5B" d="M28.067 51.23c-8.054-6.519-14.385-22.501-15.654-32.38-.027-.213-.12-.968-.044-1.172.642-1.698 3.238-5.605 2.147-6.81-.222-.245-.54-.275-.78-.102-.38.27-.288.648-.556 1.523-.27.876-.88 1.737-1.073 1.51-.426-.497.251-6.905-.146-8.608-.198-.85-.896-1.066-1.051 1.6a43.143 43.143 0 0 0-.046 2.42c0 1.851-.284 3.027-.41 2.55C10.078 10.34 10.13 3.168 9.02 3c-.54-.08.057 7.657.041 9.543-.945-2.021-.698-9.13-1.68-8.144-.608.611-.172 6.756.164 8.144.41 1.686-.5-.006-.952-.87-.368-.707-.922-3.725-1.534-2.41-.541 1.163 2.82 8.381 3.49 11.229h.001c.595 2.517 2.08 21.897 6.3 30.26C17.965 56.92 28.635 64.694 34.974 70L42 60.044c-4.17-2.05-9.144-4.938-13.933-8.813"/>
        <path fill="#C9C3C9" d="M75.75 50s2.472 11.204 4.208 12.951c0 0-10.785 13.153-10.376 15.509C69.992 80.815 83 113.68 83 113.68s-28.793 8.31-37.376 4.156c0 0-4.677-41.856-7.018-44.211C36.266 71.27 29 67.539 29 67.539s5.433-10.497 5.433-12.356c0 0 11.199 5.63 14.055 6.791C58.872 66.2 74.2 50.952 75.75 50"/>
        <path fill="#DDDBDD" d="M83 114S68.522 81.133 69.012 77.657C69.502 74.182 80.062 63 80.062 63S69.648 76.223 70.044 78.59C70.439 80.96 83 114 83 114"/>
        <path fill="#542360" d="M8.88 57a.12.12 0 0 0 .116-.088.12.12 0 0 0-.085-.146c-.052-.013-5.241-1.488-8.68-10.689a.12.12 0 0 0-.224.083c3.486 9.327 8.79 10.822 8.843 10.836.01.003.02.004.03.004"/>
        <path fill="#5B10BF" d="M58.745 213.563c-.634 1-1.298 3.44 0 4.77 1.3 1.331 4.848 1.667 4.848 1.667l2.407-.152s-2.94-1.629-4.039-3.315c-.325-.5 0-1.396 0-1.767 0-1.624-2.48-2.36-3.216-1.203"/>
        <path fill="#5E207E" d="M54.094 215L53 222.122l6.28.878 8.507-.39.213-1.546-5.043-3.683s-1.496 1.676-4.59.82c-3.094-.858-4.273-3.201-4.273-3.201"/>
        <path fill="#4C34B2" d="M54.612 214.12c-.38-.194-1.612-.25-1.612.605S55.59 219 59.25 219s4.127-1.004 3.536-1.425c-.592-.42-3.53.183-4.415-.12-.884-.3-2.61-2.747-3.76-3.335"/>
        <path fill="#6C2392" d="M59.14 221.687c-1.187 0-4.512-1.865-6.043-2.687L53 222.083l6.14.917 8.86-.434-.337-1.587c-1.88.188-7.196.708-8.523.708"/>
        <path fill="#5B10BF" d="M59 217.68l.649 3.32 6.351-.861L61.839 217z"/>
        <path fill="#9195E0" d="M60.326 218a.324.324 0 0 1-.322-.265.316.316 0 0 1 .27-.362l2.346-.368a.325.325 0 0 1 .376.26.315.315 0 0 1-.27.362l-2.346.368a.25.25 0 0 1-.054.005M61.343 219c-.162 0-.305-.088-.337-.213-.035-.143.087-.28.274-.306l3.314-.477c.181-.026.365.066.4.209.035.142-.087.279-.273.305l-3.314.477a.407.407 0 0 1-.064.005"/>
        <path fill="#5B10BF" d="M87.746 212.563c-.635 1-1.3 3.44 0 4.77 1.299 1.331 4.847 1.667 4.847 1.667l2.407-.152s-2.94-1.629-4.038-3.315c-.326-.499 0-1.395 0-1.767 0-1.624-2.48-2.36-3.216-1.203"/>
        <path fill="#5E207E" d="M82.094 214L81 221.121l6.28.879 8.507-.39.213-1.546-5.043-3.683s-1.497 1.676-4.59.819c-3.095-.857-4.273-3.2-4.273-3.2"/>
        <path fill="#4C34B2" d="M82.611 212.144c-.378-.233-1.611-.3-1.611.726s2.59 5.13 6.25 5.13 4.128-1.205 3.536-1.71c-.592-.505-3.531.22-4.415-.143-.884-.361-2.61-3.297-3.76-4.003"/>
        <path fill="#6C2392" d="M87.64 220.687c-1.253 0-4.765-1.866-6.382-2.687L81 221.691l6.64.309 9.36-.167-.355-1.854c-1.986.188-7.603.708-9.004.708"/>
        <path fill="#5B10BF" d="M87 216.68l.648 3.32 6.352-.86-4.162-3.14z"/>
        <path fill="#9195E0" d="M88.327 217a.324.324 0 0 1-.323-.265.315.315 0 0 1 .272-.361l2.344-.369a.325.325 0 0 1 .376.26.315.315 0 0 1-.271.362l-2.345.368a.343.343 0 0 1-.053.005M89.342 218c-.16 0-.305-.088-.336-.214-.035-.141.087-.279.274-.305l3.314-.477c.181-.026.365.066.4.209.036.142-.087.279-.273.305l-3.314.477a.464.464 0 0 1-.065.005"/>
        <path fill="#381A3F" d="M50.136 56c-.236-.158-3.082-7.578-3.082-7.578s-1.89-5.563-.607-6.448c1.283-.886 4.348-4.007 6.995-3.974 2.648.034 4.413.886 4.647 1.045.236.158 1.911 3.106 1.911 3.106s-.785-1-1.246 2.595C58.292 48.34 50.136 56 50.136 56"/>
        <path fill="#1C0E5B" d="M56.998 56.191c-.307.967 3.4 6.979 1.413 8.668-.637.543-9.346 5.167-9.407-1.147-.061-6.314.593-13.712.593-13.712l7.4 6.191z"/>
        <path fill="#251472" d="M49 54.4c1.18 4.233 6.396 9.019 10 7.205-.546-2.262-2.125-4.965-1.915-5.58L49.335 50c-.005.078-.17 1.774-.335 4.4"/>
        <path fill="#1C0E5B" d="M48.688 44.058c-1.01 2.462-1.125 7.026 1.156 10.562 2.282 3.536 5.472 5.431 7.798 3.772 2.325-1.66 3.13-12.563 1.506-15.434-1.626-2.871-8.92-2.65-10.46 1.1"/>
        <path fill="#0F083D" d="M48.885 55s-.467-3.51-1.782-4.407c-1.316-.897-1.907-1.437-2.13-2.678-.223-1.241-4.638-2.222-3.887-4.224.75-2.001 4.23-2.828 6.04-6.292 1.81-3.462 3.74-5.346 7.83-3.918s4.628 3.978 4.628 3.978 1.817-.254 2.894 1.975c1.078 2.229.266 3.445-.46 4.447 0 0 .192-2.885-.793-2.72-.985.167-.04 3.382-.04 3.382s-1.458-1.27-3.003-3.21c-1.546-1.94-1.19.278-.758 2.683.432 2.406-3.024.032-4.55-1.75-1.525-1.781-3.764-.245-4.608 2.176-.843 2.42 2.594 6.39.62 10.558"/>
        <path fill="#251472" d="M49.769 47.87s-1.554-2.728-2.398-1.594c-.845 1.133-.212 4.627 1.544 4.722 1.755.095.854-3.128.854-3.128"/>
        <path fill="#FD5E5A" d="M48.777 48.13s.055-1.511-.529-1.038c-.583.473-.024 2.93.51 2.908.534-.022.019-1.87.019-1.87"/>
        <path fill="#172866" d="M56.546 47c.192.768.319 1.57.395 2.385.15 1.765-.031 2.504-.038 2.615-.126-.045-.46-.144-.903-.357.287.003.57.03.852.072l-.097.108c.062-1.587-.117-3.191-.209-4.823"/>
        <path fill="#2846A6" d="M54.985 48.44c.066.273-.097.523-.365.556-.267.034-.538-.161-.605-.435-.067-.275.097-.524.365-.557.268-.034.539.161.605.435M58.985 47.44c.067.274-.096.523-.364.556a.573.573 0 0 1-.606-.435c-.067-.274.097-.524.365-.557a.573.573 0 0 1 .605.435"/>
        <path fill="#172866" d="M53 47s.798-.845 2.1-.982.895.543.591.575c-.304.032-2.738.244-2.69.407M57.205 45s1.517.415 1.795 1c0 0-1.61-.156-1.895-.476-.285-.32.1-.524.1-.524"/>
        <path fill="#28167D" d="M224.955 117s-10.015 5.758-6.01 16.211c4.007 10.453 25.539 43.18 25.539 43.18l-13.245 37.682L236.47 216 256 174.741l-18.279-56.619L224.955 117z"/>
        <path fill="#1C0E5B" d="M235 68s-29.466 15.192-31.58 20.262c-2.106 5.07 4.384 24.666 4.384 24.666l4.244 6.072s6.484-4.692 4.488-6.903c-1.997-2.205-5.24-3.036-5.24-3.036s-3.742-18.34.502-20.345c4.237-2.004 21.706 2.836 21.706 0S235 68 235 68"/>
        <path fill="#E3E3E3" d="M223.278 86.826c.162.84.33 1.673.51 2.494 5.073.642 9.725 1.241 9.725-.251C233.513 86.185 235 68 235 68s-3.784 1.996-8.73 4.797c-2.107 3.675-3.998 8.723-2.992 14.03"/>
        <path fill="#1C0E5B" d="M244 122.607s-12.63 56.271-15.255 59.163c-2.623 2.886-29.244 16.23-29.244 16.23L197 193.103l22.625-18.216-2.32-49.529L222.68 116 244 122.607z"/>
        <path fill="#28167D" d="M322.782 209.82s6.406-2.55 8.17-2.807c1.765-.257 4.032 3.28 2.59 4.489-1.435 1.208-2.985-1.582-2.985-1.582l-7.332 4.08-2.225-2.416 1.782-1.763z"/>
        <path fill="#C9C3C9" d="M290 202.105s-2.937-.444-6.05-1.878c-3.12-1.44-5.443-1.644-7.151-3.243-1.71-1.6-5.09-3.984-6.799-3.984 0 0 4.998 2.999 5.655 4.416.663 1.417 6.95 3.198 7.723 3.92.766.718 4.47 2.664 4.47 2.664l2.152-1.895zM330.332 192s1.668 1.506 1.668 2.922c0 1.415-2.031 3.229-3.595 1.108-1.57-2.126 1.927-4.03 1.927-4.03"/>
        <path fill="#28167D" d="M293.633 212.419s-1.88 2.085-1.88 2.798c0 .712 1.452 1.187 2.545 2.021.763.58.775 1.408.63 1.408-1.087 0-3.794 1.14-4.007-.672-.214-1.813-3.921-4.176-3.921-4.176l2.417-2.798 4.216 1.419z"/>
        <path fill="#1C0E5B" d="M286.576 203c-2.456.897-5.42 2.441-6.31 3.986l-1.158 2.004s-2.921-1.25-3.252-.426c-.337.817-.856 7.852-.856 7.852l3.347 1.544c.307.137.661-.096.626-.42-.095-.778-.455-1.976-1.783-2.475l.886-3.69s2.615 2.168 4.521 2.027c1.907-.143 12.999-1.057 13.394-.852.325-3.958-8.47-6.12-9.415-9.55"/>
        <path fill="#1C0E5B" d="M337.935 186.754c-.316-.907-1.838-.45-1.838-.45s-4.69 0-5.575-.913c-.89-.908-1.839-1.82-4.18-1.172-2.343.655-4.563 2.47-4.563 4.944 0 0-.708 8.88-3.847 11.234-1.019.757-5.978 2.986-10.967 3.184-8.596.337-19.025-2.108-20.349-1.16-.48.343-1.036.806-1.616 1.34 2.16 3.029 5.961 4.368 7.144 8.393 4.614.595 11.84 4.097 15.13 3.803 3.614-.324 18.909 2.019 21.725-7.24 1.078-3.538-.316-15.33 1.078-16.177 1.394-.842 4.573-.403 6.148-1.172 1.125-.547 1.078-2.205 1.078-2.205s.949-1.495.632-2.409"/>
        <path fill="#C9C3C9" d="M319.226 197l9.71 1.754L329 200l-10-2.047zM320 202.972c0-.838-.426-1.897-1.094-2.972a4.607 4.607 0 0 1-.9.885c-1.029.728-6.038 2.873-11.078 3.064-5.506.202-11.752-.665-15.928-1.098.526 1.358 1.307 2.601 2.443 2.994 2.88 1 4.673-.063 7.103 2.319 2.432 2.377 6.59 2.625 9.6-.318 3.005-2.937 9.854-2 9.854-4.874"/>
        <path fill="#4E325C" d="M323 187s-1.551.249-2.715.936c-1.157.688 1.559 6.064 1.886 6.064.328 0 .829-7 .829-7"/>
        <path fill="#C9C3C9" d="M322.613 199s2.572-.059 2.376-2.536c-.19-2.478-3.13-5.025-3.13-6.247 0-1.215 1.33-3.217 1.33-3.217s-1.473 0-2.661.887c-1.194.892-1.176 1.702-1.675 2.19-.5.493-1.48.763-1.83 2.512-.356 1.744 3.499 5.841 5.59 6.411"/>
        <path fill="#E3E3E3" d="M322.335 190.305c-.087-.916.628-2.56.957-3.305-.558.834-1.307 2.272-1.292 3.346.193 1.667 2.583 3.904 2.664 6.41.045 1.051-.532 1.99-1.863 2.243 1.174.036 2.172-.792 2.197-2.237.08-2.665-2.415-5.113-2.663-6.457"/>
        <path fill="#000" d="M328 187.004c0 .55-.225.996-.5.996s-.5-.446-.5-.996.225-1.004.5-1.004.5.453.5 1.004"/>
        <path fill="#1C0E5B" d="M323.413 212s6.717 1.008 8.338 1.675c1.626.672 1.738 4.964-.1 5.3-1.832.337-1.72-2.923-1.72-2.923l-8.28-.12-.651-3.278 2.413-.654z"/>
        <path fill="#C9C3C9" d="M337.925 186.515c-.37-.902-2.33-.344-2.515-.35-.123 0-.993 1.039.253 2.332.309.31.706.404 1.159.463.034.006.26.054.287.036.445-.386 1.117-1.769.816-2.48"/>
        <path fill="#5E207E" d="M189.384 187.215v8.426c0 3.47-.384 9.005-.384 10.74 0 1.735 3.772 8.013 5.003 7.6 1.232-.413.926-6.113 2.313-9.087 1.388-2.974 6.343-7.66 5.61-8.444-.732-.785-.684-6.178-1.61-7.17-.918-.99-10.12-2.926-10.932-2.065"/>
        <path fill="#5E207E" d="M190.96 205.236v-18.204c-.84-.071-1.46-.03-1.63.183v8.426c0 3.47-.33 9.005-.33 10.74 0 1.734 3.24 8.013 4.298 7.6.34-.136.542-.809.702-1.765-.872-1.25-3.04-4.579-3.04-6.98"/>
        <path fill="#5B10BF" d="M194 194.37s1.77 8.612 2.189 9.515c.418.904 3.811-3.818 3.811-3.818s-1.869-6.595-2.822-6.977c-.953-.377-2.317.51-3.178 1.28"/>
        <path fill="#5E207E" d="M228.21 222.64h8.114c3.336 0 8.667.36 10.338.36 1.67 0 7.714-3.534 7.32-4.687-.4-1.152-5.89-.861-8.75-2.16-2.866-1.298-6.855-5.764-7.608-5.083-.754.687-6.473.466-7.426 1.334-.953.861-2.824 9.478-1.989 10.235"/>
        <g transform="translate(228 218)">
            <mask id="d" fill="#fff">
                <use xlink:href="#c"/>
            </mask>
            <path fill="#5E207E" d="M17.42 3.551H.246c-.07.905-.029 1.574.173 1.758h7.95c3.268 0 8.491.358 10.129.358 1.637 0 7.558-3.5 7.171-4.641-.126-.37-.766-.588-1.666-.756-1.176.94-4.324 3.281-6.583 3.281" mask="url(#d)"/>
        </g>
        <path fill="#5B10BF" d="M235.376 218s8.608-1.476 9.51-1.82c.9-.35-3.817-3.18-3.817-3.18s-6.594 1.56-6.979 2.357c-.379.79.51 1.926 1.286 2.643"/>
        <path fill="#4E325C" d="M337 190.063c-.448 3.427-6.516 1.368-5.965.858a.143.143 0 0 1 .184-.005h.006l.012.01c1.392 1.129 5.254 1.607 5.628-.873v-.006c.006-.03.037-.052.074-.046.037.005.061.03.061.062"/>
        <path fill="#C9C3C9" d="M226.116 83.732s2.296 16.64 0 24.128c-2.302 7.488-5.116 8.334-5.116 8.334L244.013 122S253 89.691 253 81.836c0-3.21-2.117-8.476-4.956-11.681-4.108-4.633-9.935-6.463-14.771-4.165-8.182 3.88-7.157 17.742-7.157 17.742"/>
        <path fill="#1C0E5B" d="M235.036 79.53c.865 9.18 7.777 29.845 17.554 32.33 9.777 2.49 15.292-29.154 15.292-30.6 0-1.453.625-9.055-1-10.85-1.632-1.795-7.275 2.733-7.275 5.236 0 2.503 3.76 5.614 3.76 5.614s-5.286 17.437-7.771 18.717c-5.129 2.657-6.79-23.995-9.701-26.621-9.842-8.884-11.152 3.046-10.86 6.174"/>
        <path fill="#1C0E5B" d="M245.774 50s-3.927 2.659-6.153 9.52c-2.231 6.863-3.427 6.273-2.006 7.841 1.951 2.158 8.556 4.816 10.531 3.077 0 0-.756-9.485 1.854-12.28L245.774 50z"/>
        <path fill="#4026B3" d="M246.144 50s-1.52 1.083-3.144 3.663c1.313 3.912 3.667 6.492 5.692 7.337.273-1.304.685-2.45 1.308-3.153L246.144 50z"/>
        <path fill="#1C0E5B" d="M243.608 38.006c2.73.137 6.288 1.557 7.98 5.577C253.286 47.597 254 51.36 254 51.36l-1.086.411s1.854 6.233.036 8.368c-1.812 2.135-7.8.364-11.496-6.102-3.702-6.471-3.396-16.312 2.154-16.032"/>
        <path fill="#0F083D" d="M245.073 48.907s-.284-1.01.14-2.13c.422-1.127-.673-4.652.416-5.073 1.09-.42 4.37.812 6.224-2.38 1.855-3.194 1.35-4.974-.724-5.447-2.07-.472-3.077.368-4.242.158s-1.321-1.371-3.106-.94c-1.79.432-3.263.392-4.874 1.01-1.616.619-1.338 3.093-1.338 3.093s-1.692.823-2.37 2.627c-.678 1.804.614 3.157.4 4.559-.215 1.394-.98 3.717.782 6.939 1.761 3.222 4.456 7.208 5.986 6.618 1.535-.59 3.1-6.501 2.706-9.034"/>
        <path fill="#252F7D" d="M237.981 32.458l-.235-.458c-.868.458-1.655 1.372-1.735 2.326-.102 1.073.537 1.802 1.392 2.674l.107-.087c-.04-.044-.753-.79-.908-1.226-.417-.779-.343-1.677.37-2.456.37-.425.895-.702.942-.74.047-.023.12-.05.067-.033"/>
        <path fill="#3648A1" d="M250.999 47.557a.47.47 0 0 1-.528.44.535.535 0 0 1-.47-.554.473.473 0 0 1 .533-.44.527.527 0 0 1 .465.554M248 46s.78-1.01 1.714-1.238c.929-.228 1.286-.17 1.286-.17l-.137-.592s-2.418.19-2.863 2"/>
        <path fill="#1C0E5B" d="M244.686 49.18s-1.974-3.403-2.565-1.705c-.585 1.692 1.114 4.768 1.732 4.51.62-.259 1.677-.604.833-2.806"/>
        <path fill="#28167D" d="M245.88 49.275s-1.463-1.958-1.784-1.02c-.328.93.227 3.047 1.04 2.709.807-.338 1.033-.931.743-1.69"/>
        <path fill="#3648A1" d="M250.628 55.856c-.46-.46-.049-.779-.38-.852a.202.202 0 0 0-.238.151c0 .006-.006.012-.006.018.012.055-.104.526.391.946.582.516 1.708.78 2.49.88.13.017.16-.174.038-.196-.257-.095-1.69-.32-2.295-.947"/>
    </g>
</svg>
