<?xml version="1.0" encoding="UTF-8"?>
<svg width="35px" height="26px" viewBox="0 0 35 26" version="1.1" xmlns="http://www.w3.org/2000/svg" xmlns:xlink="http://www.w3.org/1999/xlink">
    <!-- Generator: sketchtool 63.1 (101010) - https://sketch.com -->
    <title>F3A0FD64-B285-4C05-B62A-42F4D4B022AF</title>
    <desc>Created with sketchtool.</desc>
    <defs>
        <linearGradient x1="0%" y1="22.4081633%" x2="100%" y2="77.5918367%" id="linearGradient-1">
            <stop stop-color="#FE5497" offset="0%"></stop>
            <stop stop-color="#7F2284" offset="100%"></stop>
        </linearGradient>
    </defs>
    <g id="Screen" stroke="none" stroke-width="1" fill="none" fill-rule="evenodd">
        <g id="11-Home-01" transform="translate(-259.000000, -376.000000)" fill="url(#linearGradient-1)">
            <g id="Categories" transform="translate(16.000000, 152.000000)">
                <g id="Thumbnail-04" transform="translate(179.000000, 179.000000)">
                    <path d="M90.349976,48.3938351 L83.5060821,48.3938351 C82.0543283,48.3938351 80.8731421,49.5471864 80.8731421,50.9648779 C80.8731421,52.3825026 82.0543283,53.5358538 83.5060821,53.5358538 L90.3501127,53.5358538 C91.8019348,53.5358538 92.9829843,52.3825026 92.9829843,50.9648111 C92.9828476,49.5471864 91.8017981,48.3938351 90.349976,48.3938351 Z M88.1399087,62.8762766 C88.4060328,63.4197095 88.5411115,64.0023928 88.5411115,64.6079723 C88.5411115,66.8230235 86.6956062,68.6250764 84.4272282,68.6250764 C84.2510654,68.6250764 84.0764749,68.6143292 83.9040035,68.5929016 C83.2627217,70.0199385 81.7992785,71 80.1354732,71 C78.4811698,71 77.0166329,70.0223416 76.3715913,68.6015127 C76.2237977,68.6171996 76.0745687,68.6250764 75.9245192,68.6250764 C73.6560729,68.6250764 71.810636,66.8230235 71.810636,64.6079723 C71.810636,64.0661415 71.9195329,63.5399309 72.1343189,63.0440259 L72.1343189,63.0440259 L74.0242579,63.8245639 C73.9170016,64.0721493 73.8626557,64.335822 73.8626557,64.6080391 C73.8626557,65.7182014 74.78763,66.6214307 75.9245876,66.6214307 C76.1900281,66.6214307 76.4491111,66.5724343 76.694659,66.4757098 L76.694659,66.4757098 L77.9122125,65.9962927 L78.0943226,67.2658602 C78.2359638,68.2524634 79.1134965,68.996421 80.1355415,68.996421 C81.168319,68.996421 82.0468771,68.2435186 82.1792898,67.2450334 L82.1792898,67.2450334 L82.3545639,65.9233321 L83.6060239,66.4550832 C83.8659272,66.5654252 84.1422369,66.6214307 84.4272966,66.6214307 C85.5642542,66.6214307 86.4892285,65.7182014 86.4892285,64.6080391 C86.4892285,64.3039143 86.4217575,64.0120719 86.2889347,63.7408562 L86.2889347,63.7408562 Z M80.1758737,64.6998239 C80.1758737,64.6998239 81.0629768,65.5194122 81.0629768,66.3845257 C81.0629768,66.8176165 80.7249384,67.1687351 80.1758737,67.1687351 C79.6156665,67.1687351 79.2887023,66.8176165 79.2887023,66.3845257 C79.2887023,65.5194122 80.1758737,64.6998239 80.1758737,64.6998239 Z M75.5834046,63.5893278 C76.2271474,62.9949627 77.4465467,63.0613816 77.4465467,63.0613816 C77.4465467,63.0613816 77.4461365,64.2539166 76.8023938,64.8482816 C76.480078,65.1457979 75.9865214,65.1470662 75.6093813,64.7575649 C75.2244481,64.3600532 75.2610889,63.8869108 75.5834046,63.5893278 Z M82.7807863,63.0613148 C82.7807863,63.0613148 84.0001855,62.994896 84.6439283,63.589261 C84.966244,63.8868441 85.0028848,64.3599864 84.61802,64.7574981 C84.2408115,65.147133 83.7472549,65.1458647 83.4249392,64.8482149 C82.7811964,64.2538498 82.7807863,63.0613148 82.7807863,63.0613148 Z M91.9043375,45 C93.3368138,45 94.6142504,45.6570457 95.4397615,46.6779598 L95.4397615,46.6779598 L99,46.6779598 L99,48.6816723 L96.347851,48.6816723 C96.3872945,48.9151061 96.408691,49.1543474 96.408691,49.3984616 L96.408691,49.3984616 L96.408691,53.9873016 L93.1196352,57.2113182 L93.1196352,61.356921 L64,61.356921 L70.5079063,50.4026208 C72.4876699,47.070198 76.1683581,45 80.1138032,45 L80.1138032,45 Z M91.0677522,57.799275 L68.4858281,57.799275 L67.5626311,59.3532085 L91.0677522,59.3532085 L91.0677522,57.799275 Z M91.9044059,47.0037125 L80.1138715,47.0037125 C76.897482,47.0037125 73.8968355,48.6913514 72.2828644,51.4080483 L72.2828644,51.4080483 L69.6761745,55.7956292 L91.6676081,55.7956292 L94.356808,53.1595695 L94.356808,49.3984616 C94.356808,48.0780286 93.2566963,47.0037125 91.9044059,47.0037125 L91.9044059,47.0037125 Z M90.3501127,50.3975476 C90.6705143,50.3975476 90.9310329,50.6520085 90.9310329,50.9648779 C90.9308962,51.2776805 90.6703776,51.5321414 90.349976,51.5321414 L83.5060821,51.5321414 C83.1856804,51.5321414 82.9250935,51.2776805 82.9250935,50.9648111 C82.9250935,50.6520085 83.1856804,50.3975476 83.5060821,50.3975476 L90.3501127,50.3975476 Z" id="Icon-Iron"></path>
                </g>
            </g>
        </g>
    </g>
</svg>