<?xml version="1.0" encoding="UTF-8"?>
<svg width="25px" height="32px" viewBox="0 0 25 32" version="1.1" xmlns="http://www.w3.org/2000/svg" xmlns:xlink="http://www.w3.org/1999/xlink">
    <!-- Generator: sketchtool 63.1 (101010) - https://sketch.com -->
    <title>4EA7621B-7A15-4740-AA17-140CA5AA0C2D</title>
    <desc>Created with sketchtool.</desc>
    <defs>
        <linearGradient x1="19.4824219%" y1="0%" x2="80.5175781%" y2="100%" id="linearGradient-1">
            <stop stop-color="#FE5497" offset="0%"></stop>
            <stop stop-color="#7F2284" offset="100%"></stop>
        </linearGradient>
    </defs>
    <g id="Screen" stroke="none" stroke-width="1" fill="none" fill-rule="evenodd">
        <g id="11-Home-01" transform="translate(-85.000000, -370.000000)" fill="url(#linearGradient-1)">
            <g id="Categories" transform="translate(16.000000, 152.000000)">
                <g id="Thumbnail-03" transform="translate(0.000000, 179.000000)">
                    <path d="M89.0043209,40.875 L88.1835477,40.875 L85.5249466,39 L78.2275824,39 L75.5334613,40.875 L73.9956791,40.875 C71.2410024,40.875 69,43.0793125 69,45.78875 L69,71 L94,71 L94,45.78875 C94,43.0793125 91.758934,40.875 89.0043209,40.875 Z M86.1158881,41.7396875 L87.0749288,42.4090625 L85.1614859,47.1675 L83.975155,46.04475 L86.1158881,41.7396875 Z M84.5500839,40.875 L81.851769,46.064875 L79.189419,40.875 L84.5500839,40.875 Z M77.5849812,41.7396875 L79.7257142,46.0446875 L78.5393834,47.1674375 L76.6259404,42.409 L77.5849812,41.7396875 Z M74.7131329,42.75 L77.8123983,50.4575 L81.8504346,46.6358125 L85.8884709,50.4575 L88.9876728,42.75 L89.0043209,42.75 C90.7078843,42.75 92.0937373,44.1131875 92.0937373,45.78875 L92.0937373,69.125 L70.9062627,69.125 L70.9062627,45.78875 C70.9062627,44.1131875 72.2921792,42.75 73.9956791,42.75 L74.7131329,42.75 Z M81.8923724,64.72875 C81.3835192,64.72875 80.9710121,65.1344919 80.9710121,65.635 C80.9710121,66.1355081 81.3835192,66.54125 81.8923724,66.54125 C82.4012257,66.54125 82.8137327,66.1355081 82.8137327,65.635 C82.8137327,65.1344919 82.4012257,64.72875 81.8923724,64.72875 Z M81.8923724,59.6870625 C81.3835192,59.6870625 80.9710121,60.0928044 80.9710121,60.5933125 C80.9710121,61.0938206 81.3835192,61.4995625 81.8923724,61.4995625 C82.4012257,61.4995625 82.8137327,61.0938206 82.8137327,60.5933125 C82.8137327,60.0928044 82.4012257,59.6870625 81.8923724,59.6870625 Z M81.8923724,54.6454375 C81.3835192,54.6454375 80.9710121,55.0511794 80.9710121,55.5516875 C80.9710121,56.0521956 81.3835192,56.4579375 81.8923724,56.4579375 C82.4012257,56.4579375 82.8137327,56.0521956 82.8137327,55.5516875 C82.8137327,55.0511794 82.4012257,54.6454375 81.8923724,54.6454375 Z M81.8923724,49.60375 C81.3835192,49.60375 80.9710121,50.0094919 80.9710121,50.51 C80.9710121,51.0105081 81.3835192,51.41625 81.8923724,51.41625 C82.4012257,51.41625 82.8137327,51.0105081 82.8137327,50.51 C82.8137327,50.0094919 82.4012257,49.60375 81.8923724,49.60375 Z" id="Icon-Shirt"></path>
                </g>
            </g>
        </g>
    </g>
</svg>