<?xml version="1.0" encoding="UTF-8"?>
<svg width="23px" height="32px" viewBox="0 0 23 32" version="1.1" xmlns="http://www.w3.org/2000/svg" xmlns:xlink="http://www.w3.org/1999/xlink">
    <!-- Generator: sketchtool 63.1 (101010) - https://sketch.com -->
    <title>036E5460-7E4D-4388-90E4-3577FC3C4C1E</title>
    <desc>Created with sketchtool.</desc>
    <defs>
        <linearGradient x1="24.1699219%" y1="0%" x2="75.8300781%" y2="100%" id="linearGradient-1">
            <stop stop-color="#FE5497" offset="0%"></stop>
            <stop stop-color="#7F2284" offset="100%"></stop>
        </linearGradient>
    </defs>
    <g id="Screen" stroke="none" stroke-width="1" fill="none" fill-rule="evenodd">
        <g id="11-Home-01" transform="translate(-86.000000, -191.000000)" fill="url(#linearGradient-1)">
            <g id="Categories" transform="translate(16.000000, 152.000000)">
                <g id="Thumbnail-01">
                    <path d="M70,39 L70,69.141625 L71.8924612,69.141625 L71.8924612,71 L75.2375696,71 L75.2375696,69.141625 L88.0308983,69.141625 L88.0308983,71 L91.3759424,71 L91.3759424,69.141625 L93,69.141625 L93,39 L70,39 Z M71.9295734,40.875 L91.0704266,40.875 L91.0704266,44.738125 L71.9295734,44.738125 L71.9295734,40.875 Z M91.070491,46.613125 L91.070491,67.2666875 L71.9295734,67.2666875 L71.9295734,46.613125 L91.070491,46.613125 Z M81.7227014,51.2352941 C78.7856334,51.2352941 76.3961784,53.5571691 76.3961784,56.4111066 C76.3961784,59.2651066 78.7856334,61.5869816 81.7227014,61.5869816 C84.6597693,61.5869816 87.04916,59.2651066 87.04916,56.4111066 C87.04916,53.5571691 84.6597693,51.2352941 81.7227014,51.2352941 Z M81.7227014,53.1102941 C83.5958025,53.1102941 85.1195866,54.5910441 85.1195866,56.4111066 C85.1195866,58.2312316 83.5958025,59.7119816 81.7227014,59.7119816 C79.8496002,59.7119816 78.3257518,58.2312316 78.3257518,56.4111066 C78.3257518,54.5910441 79.8496002,53.1102941 81.7227014,53.1102941 Z M86.037549,41.8235294 C86.5934401,41.8235294 87.0440788,42.2614229 87.0440788,42.8015919 C87.0440788,43.3417609 86.5934401,43.7796544 86.037549,43.7796544 C85.4816579,43.7796544 85.0310192,43.3417609 85.0310192,42.8015919 C85.0310192,42.2614229 85.4816579,41.8235294 86.037549,41.8235294 Z M88.9158293,41.8235294 C89.4717203,41.8235294 89.9223591,42.2614229 89.9223591,42.8015919 C89.9223591,43.3417609 89.4717203,43.7796544 88.9158293,43.7796544 C88.3599382,43.7796544 87.9092995,43.3417609 87.9092995,42.8015919 C87.9092995,42.2614229 88.3599382,41.8235294 88.9158293,41.8235294 Z" id="Icon-Washing-Machine"></path>
                </g>
            </g>
        </g>
    </g>
</svg>