<?xml version="1.0" encoding="UTF-8"?>
<svg width="28px" height="32px" viewBox="0 0 28 32" version="1.1" xmlns="http://www.w3.org/2000/svg" xmlns:xlink="http://www.w3.org/1999/xlink">
    <!-- Generator: sketchtool 63.1 (101010) - https://sketch.com -->
    <title>6F856D66-CB74-4E1B-8C64-ABD43A18F546</title>
    <desc>Created with sketchtool.</desc>
    <defs>
        <linearGradient x1="11.71875%" y1="0%" x2="88.28125%" y2="100%" id="linearGradient-1">
            <stop stop-color="#FE5497" offset="0%"></stop>
            <stop stop-color="#7F2284" offset="100%"></stop>
        </linearGradient>
    </defs>
    <g id="Screen" stroke="none" stroke-width="1" fill="none" fill-rule="evenodd">
        <g id="11-Home-01" transform="translate(-263.000000, -191.000000)" fill="url(#linearGradient-1)">
            <g id="Categories" transform="translate(16.000000, 152.000000)">
                <g id="Thumbnail-02" transform="translate(179.000000, 0.000000)">
                    <path d="M96,47.4687665 C96,46.4799521 95.5735469,45.5876379 94.8926848,44.9583241 C95.5735469,44.3290104 96,43.4366962 96,42.4478817 C96,40.546753 94.4259715,39 92.4912547,39 L78.3552731,39 L76.8564861,39 L74.0633933,39 C70.7200138,39 68,41.6729427 68,44.9583866 C68,47.0647658 69.1181275,48.9193944 70.8017427,49.9792089 C69.1180639,51.0390235 68,52.8936521 68,55.0000313 C68,57.1064104 69.1181275,58.961039 70.8017427,60.0208536 C69.1181275,61.0806681 68,62.9352967 68,65.0416759 C68,68.3271198 70.7200774,71 74.0633933,71 L76.8564861,71 L78.9002808,71 L92.4912547,71 C94.4259715,71 96,69.453247 96,67.5520558 C96,66.5632413 95.5735469,65.6709271 94.8926848,65.0416134 C95.5735469,64.4122996 96,63.5200479 96,62.531171 C96,61.542294 95.5735469,60.6500423 94.8926848,60.0207286 C95.5735469,59.3914148 96,58.4991006 96,57.5102862 C96,56.5214717 95.5735469,55.6291575 94.8926848,54.9998437 C95.5735469,54.37053 96,53.4782783 96,52.4894013 C96,51.5005244 95.5735469,50.6082727 94.8926848,49.9789589 C95.5735469,49.3498952 96,48.457581 96,47.4687665 Z M69.9080675,44.9583866 C69.9080675,42.7068197 71.7721222,40.8750037 74.0633933,40.8750037 L76.8564861,40.8750037 L78.3552731,40.8750037 L92.4911911,40.8750037 C93.3737995,40.8750037 94.0919325,41.58063 94.0919325,42.4479442 C94.0919325,43.3152584 93.3737995,44.0208848 92.4911911,44.0208848 L74.6084646,44.0208848 L74.6084646,45.8958885 L92.4912547,45.8958885 C93.3738631,45.8958885 94.0919325,46.6014523 94.0919325,47.4687665 C94.0919325,48.3360807 93.3738631,49.0417071 92.4912547,49.0417071 L78.9002808,49.0417071 L78.3553367,49.0417071 L76.8564861,49.0417071 L74.0633933,49.0417071 C71.7721222,49.0417071 69.9080675,47.2099535 69.9080675,44.9583866 Z M92.4912547,65.9792402 C93.3738631,65.9792402 94.0919325,66.6848666 94.0919325,67.5521808 C94.0919325,68.419495 93.3738631,69.1251213 92.4912547,69.1251213 L78.9002808,69.1251213 L76.8564861,69.1251213 L74.0633933,69.1251213 C71.7721858,69.1251213 69.9080675,67.2933053 69.9080675,65.0418009 C69.9080675,62.7902965 71.7721858,60.9584804 74.0633933,60.9584804 L76.8564861,60.9584804 L78.3552731,60.9584804 L78.9002172,60.9584804 L92.4911911,60.9584804 C93.3738631,60.9583554 94.0919325,61.6639818 94.0919325,62.531296 C94.0919325,63.3986102 93.3738631,64.1042365 92.4912547,64.1042365 L74.6084646,64.1042365 L74.6084646,65.9792402 L92.4912547,65.9792402 L92.4912547,65.9792402 Z M92.4912547,54.0625294 L74.6084646,54.0625294 L74.6084646,55.9375331 L92.4912547,55.9375331 C93.3738631,55.9375331 94.0919325,56.6431595 94.0919325,57.5104737 C94.0919325,58.3777878 93.3738631,59.0834142 92.4912547,59.0834142 L78.9002808,59.0834142 L78.3553367,59.0834142 L76.8564861,59.0834142 L74.0633933,59.0834142 C71.7721858,59.0834142 69.9080675,57.2515981 69.9080675,55.0000938 C69.9080675,52.7485894 71.7721858,50.9167733 74.0633933,50.9167733 L76.8564861,50.9167733 L78.3552731,50.9167733 L78.9002172,50.9167733 L92.4911911,50.9167733 C93.3738631,50.9167733 94.0919325,51.6222747 94.0919325,52.4895888 C94.0919325,53.356903 93.3738631,54.0625294 92.4912547,54.0625294 Z" id="Icon-Clothes"></path>
                </g>
            </g>
        </g>
    </g>
</svg>