<?xml version="1.0" encoding="UTF-8"?>
<svg width="21px" height="28px" viewBox="0 0 21 28" version="1.1" xmlns="http://www.w3.org/2000/svg" xmlns:xlink="http://www.w3.org/1999/xlink">
    <!-- Generator: sketchtool 63.1 (101010) - https://sketch.com -->
    <title>55BAEE6F-3889-4ABE-8E92-47A8F3B6BFEA</title>
    <desc>Created with sketchtool.</desc>
    <g id="Screen" stroke="none" stroke-width="1" fill="none" fill-rule="evenodd">
        <g id="11-Home-01" transform="translate(-46.000000, -552.000000)" fill="#FFFFFF" fill-rule="nonzero">
            <g id="Banner-01" transform="translate(16.000000, 510.000000)">
                <g id="Icon" transform="translate(16.000000, 32.000000)">
                    <path d="M33.9853235,20.9986406 L25.3124685,16.8297031 L25.3124685,16.0033203 C26.5895839,15.6441328 27.5292561,14.4594922 27.5292561,13.0574687 C27.5292561,11.3716172 26.1703264,10 24.5000148,10 C22.8297032,10 21.4707735,11.3716172 21.4707735,13.0575234 L23.0962227,13.0575234 C23.0962227,12.2762578 23.7259759,11.640625 24.5000148,11.640625 C25.2740537,11.640625 25.9038069,12.2762578 25.9038069,13.0575234 C25.9038069,13.8387891 25.2740537,14.4743672 24.5000148,14.4743672 L23.6881029,14.4743672 L23.6871818,16.8297578 L15.0561008,20.9772578 L15.0146519,20.9986406 C14.2271218,21.4344453 13.8433532,22.3000391 14.0597005,23.1525625 C14.2850419,24.0404141 15.0702964,24.6369453 16.0138155,24.6369453 L18.0144725,24.6369453 L18.0144725,38 L30.985557,38 L30.985557,24.6369453 L32.9861599,24.6369453 C33.929679,24.6369453 34.7149877,24.0404141 34.9402749,23.1525078 C35.1566764,22.3000391 34.7729078,21.4344453 33.9853235,20.9986406 Z M29.3601079,36.359375 L19.6399217,36.359375 L19.6399217,34.7948203 L29.3601079,34.7948203 L29.3601079,36.359375 L29.3601079,36.359375 Z M29.3601079,33.1541953 L19.6399217,33.1541953 L19.6399217,23.3860234 C19.6399217,23.2089453 19.7826362,23.0648984 19.9580763,23.0648984 L29.0418991,23.0648984 C29.2173392,23.0648984 29.3601079,23.2089453 29.3601079,23.3860234 L29.3601079,33.1541953 Z M33.3657023,22.7454688 C33.3508023,22.8043125 33.2792284,22.996375 32.9861599,22.996375 L30.9469255,22.996375 C30.7673676,22.1007031 29.9814629,21.4242734 29.0418991,21.4242734 L19.9580763,21.4242734 C19.0185125,21.4242734 18.232662,22.1007031 18.053104,22.996375 L16.0138155,22.996375 C15.720747,22.996375 15.6492814,22.8043672 15.6343273,22.7455234 C15.6028478,22.6214375 15.6505276,22.5234922 15.7801301,22.4464922 L24.4999606,18.2563359 L33.2198995,22.4464922 C33.349502,22.5234375 33.3971818,22.6213828 33.3657023,22.7454688 Z" id="Icon-Towel"></path>
                </g>
            </g>
        </g>
    </g>
</svg>