<?xml version="1.0" encoding="UTF-8"?>
<svg width="23px" height="24px" viewBox="0 0 23 24" version="1.1" xmlns="http://www.w3.org/2000/svg" xmlns:xlink="http://www.w3.org/1999/xlink">
    <!-- Generator: sketchtool 63.1 (101010) - https://sketch.com -->
    <title>9780DD81-DEE9-4B18-A007-D9537BDCC01D</title>
    <desc>Created with sketchtool.</desc>
    <g id="Screen" stroke="none" stroke-width="1" fill="none" fill-rule="evenodd">
        <g id="11-Home-01" transform="translate(-130.000000, -646.000000)" fill="#C8C7CC" fill-rule="nonzero">
            <g id="Tab-Bars" transform="translate(0.000000, 638.000000)">
                <g id="02" transform="translate(94.000000, 0.000000)">
                    <g id="Icon" transform="translate(36.000000, 8.000000)">
                        <path d="M22,0 C22.5522847,0 23,0.44771525 23,1 L23,19 C23,21.7612847 20.7612847,24 18,24 L17.983,23.999 L5,24 C2.23871525,24 0,21.7612847 0,19 C0,18.4477153 0.44771525,18 1,18 L3,17.999 L3,1 C3,0.44771525 3.44771525,0 4,0 L22,0 Z M21,2 L5,2 L5,17.999 L14,18 C14.5522847,18 15,18.4477153 15,19 C15,20.5975468 16.2490492,21.9036513 17.8237411,21.9949068 L18,22 L18.012,22 L18.1762589,21.9949068 C19.7509508,21.9036513 21,20.5975468 21,19 L21,2 Z M18,13 L18,15 L12,15 L12,13 L18,13 Z M10,13 L10,15 L8,15 L8,13 L10,13 Z M18,9 L18,11 L12,11 L12,9 L18,9 Z M10,9 L10,11 L8,11 L8,9 L10,9 Z M18,5 L18,7 L12,7 L12,5 L18,5 Z M10,5 L10,7 L8,7 L8,5 L10,5 Z" id="Combined-Shape"></path>
                    </g>
                </g>
            </g>
        </g>
    </g>
</svg>